<?xml version="1.0" encoding="utf-8"?>
<!-- Generator: Adobe Illustrator 22.1.0, SVG Export Plug-In . SVG Version: 6.00 Build 0)  -->
<svg version="1.1" id="图层_1" xmlns="http://www.w3.org/2000/svg" xmlns:xlink="http://www.w3.org/1999/xlink" x="0px" y="0px"
	 viewBox="0 0 200 200" style="enable-background:new 0 0 200 200;" xml:space="preserve">
<style type="text/css">
	.st0{fill-rule:evenodd;clip-rule:evenodd;fill:#747E8B;}
</style>
<path class="st0" d="M100.2,197.8c-53.8,0-97.5-43.7-97.5-97.5S46.3,2.8,100.2,2.8s97.5,43.7,97.5,97.5S154,197.8,100.2,197.8z
	 M100.2,8.2c-50.9,0-92.1,41.2-92.1,92.1s41.2,92.1,92.1,92.1s92.1-41.2,92.1-92.1S151,8.2,100.2,8.2z"/>
<path class="st0" d="M147.9,77c-1.2,0.9-2.3,1.8-3.5,2.8c0.1,5.1-0.1,10-1,14.2c-5.6,24.9-20.4,41.8-43.8,49
	c-8.4,2.6-22,3.7-31.7,1.3c-4.8-1.2-9.1-2.5-13.2-4.3c-2.2-1-4.3-2-6.3-3.2c-0.7-0.4-1.3-0.8-2-1.2c2.2,0.1,4.7,0.7,7.2,0.3
	c2.2-0.4,4.4-0.3,6.4-0.7c5.1-1.1,9.6-2.6,13.4-4.8c1.9-1.1,4.7-2.4,6.1-3.9c-2.5,0-4.8-0.5-6.7-1.2c-7.2-2.5-11.5-7.2-14.2-14.2
	c2.2,0.2,8.5,0.8,10-0.4c-2.8-0.2-5.4-1.7-7.3-2.9c-5.8-3.6-10.6-9.7-10.5-19c0.8,0.4,1.5,0.7,2.3,1.1c1.5,0.6,3,0.9,4.7,1.3
	c0.7,0.2,2.2,0.6,3.1,0.3h-0.1c-1.1-1.3-3-2.2-4.1-3.6c-3.7-4.6-7.2-11.7-5-20.1c0.6-2.1,1.5-4,2.4-5.8c0,0,0.1,0,0.1,0.1
	c0.4,0.9,1.4,1.6,2,2.3c1.9,2.3,4.3,4.5,6.7,6.3c8.2,6.3,15.5,10.2,27.4,13.1c3,0.7,6.5,1.3,10,1.3c-1-2.9-0.7-7.6,0.1-10.4
	c2-7.1,6.3-12.2,12.7-14.9c1.5-0.7,3.2-1.1,5-1.5c0.9-0.1,1.8-0.2,2.7-0.3c8.7-0.2,13.3,3,17.7,7c3.7-0.3,8.6-2.4,11.5-3.8
	c0.9-0.5,1.9-1,2.8-1.5c-1.6,4.4-3.9,7.8-7.3,10.4c-0.8,0.6-1.5,1.4-2.5,1.7v0.1c4.9,0,8.9-2.2,12.7-3.4v0.1
	C153.5,71.6,150.8,74.8,147.9,77z"/>
</svg>
